REM DIRINDEX 1\8,1\2\11,1\3\12,1\3\14,1\5\15,1\5\16,1\6\17,1\6\18,1\4\19,1\4\20,1\4\21,1\4\22,1\7\23,1\7\24,1\7\25,1\2\9\26,1\2\9\27,1\2\10\28,1\2\10\29,1\2\10\30,1\2\10\31,1\2\10\32,1\3\13\33,1\3\13\34,1\3\13\35
REM DIRNAME folder01,folder02,folder03,folder04,folder05,folder06,folder07,folder08,folder09,folder10,folder11,folder12,folder13,folder14,folder15,folder16,folder17,folder18,folder19,folder20,folder21,folder22,folder23,folder24,folder25,folder26,folder27,folder28,folder29,folder30,folder31,folder32,folder33,folder34,folder35
TITLE ""
FILE "146 146_—á•¶UNIT4_SET6.mp3" MP3
  TRACK 01 AUDIO
    TITLE "22:cjc123_3693"
    INDEX 01 00:00:00
  TRACK 02 AUDIO
    TITLE "0:"
    INDEX 01 00:02:67
  TRACK 03 AUDIO
    TITLE "19:cjc123_3694"
    INDEX 01 00:03:37
  TRACK 04 AUDIO
    TITLE "0:"
    INDEX 01 00:08:32
  TRACK 05 AUDIO
    TITLE "20:cjc123_3695"
    INDEX 01 00:08:68
  TRACK 06 AUDIO
    TITLE "0:"
    INDEX 01 00:12:67
  TRACK 07 AUDIO
    TITLE "21:cjc123_3696"
    INDEX 01 00:13:20
  TRACK 08 AUDIO
    TITLE "0:"
    INDEX 01 00:18:15
  TRACK 09 AUDIO
    TITLE "19:cjc123_3697"
    INDEX 01 00:18:66
  TRACK 10 AUDIO
    TITLE "0:"
    INDEX 01 00:22:34
  TRACK 11 AUDIO
    TITLE "20:cjc123_3698"
    INDEX 01 00:22:72
  TRACK 12 AUDIO
    TITLE "0:"
    INDEX 01 00:25:50
  TRACK 13 AUDIO
    TITLE "21:cjc123_3699"
    INDEX 01 00:26:05
  TRACK 14 AUDIO
    TITLE "0:"
    INDEX 01 00:29:48
  TRACK 15 AUDIO
    TITLE "19:cjc123_3700"
    INDEX 01 00:30:28
  TRACK 16 AUDIO
    TITLE "0:"
    INDEX 01 00:33:71
  TRACK 17 AUDIO
    TITLE "20:cjc123_3701"
    INDEX 01 00:34:38
  TRACK 18 AUDIO
    TITLE "0:"
    INDEX 01 00:38:22
  TRACK 19 AUDIO
    TITLE "21:cjc123_3702"
    INDEX 01 00:38:55
  TRACK 20 AUDIO
    TITLE "0:"
    INDEX 01 00:42:25
  TRACK 21 AUDIO
    TITLE "19:cjc123_3703"
    INDEX 01 00:42:74
  TRACK 22 AUDIO
    TITLE "0:"
    INDEX 01 00:48:71
  TRACK 23 AUDIO
    TITLE "20:cjc123_3704"
    INDEX 01 00:49:27
  TRACK 24 AUDIO
    TITLE "0:"
    INDEX 01 00:54:15
  TRACK 25 AUDIO
    TITLE "21:cjc123_3705"
    INDEX 01 00:54:44
  TRACK 26 AUDIO
    TITLE "0:"
    INDEX 01 01:00:41
  TRACK 27 AUDIO
    TITLE "19:cjc123_3706"
    INDEX 01 01:01:17
  TRACK 28 AUDIO
    TITLE "0:"
    INDEX 01 01:04:74
  TRACK 29 AUDIO
    TITLE "20:cjc123_3707"
    INDEX 01 01:05:34
  TRACK 30 AUDIO
    TITLE "0:"
    INDEX 01 01:09:32
  TRACK 31 AUDIO
    TITLE "21:cjc123_3708"
    INDEX 01 01:09:59
  TRACK 32 AUDIO
    TITLE "0:"
    INDEX 01 01:13:40
  TRACK 33 AUDIO
    TITLE "19:cjc123_3709"
    INDEX 01 01:14:27
  TRACK 34 AUDIO
    TITLE "0:"
    INDEX 01 01:18:58
  TRACK 35 AUDIO
    TITLE "20:cjc123_3710"
    INDEX 01 01:19:36
  TRACK 36 AUDIO
    TITLE "0:"
    INDEX 01 01:23:01
  TRACK 37 AUDIO
    TITLE "21:cjc123_3711"
    INDEX 01 01:23:42
  TRACK 38 AUDIO
    TITLE "0:"
    INDEX 01 01:27:73
  TRACK 39 AUDIO
    TITLE "19:cjc123_3712"
    INDEX 01 01:28:55
  TRACK 40 AUDIO
    TITLE "0:"
    INDEX 01 01:33:19
  TRACK 41 AUDIO
    TITLE "20:cjc123_3713"
    INDEX 01 01:33:58
  TRACK 42 AUDIO
    TITLE "0:"
    INDEX 01 01:37:36
  TRACK 43 AUDIO
    TITLE "21:cjc123_3714"
    INDEX 01 01:37:71
  TRACK 44 AUDIO
    TITLE "0:"
    INDEX 01 01:42:35
  TRACK 45 AUDIO
    TITLE "19:cjc123_3715"
    INDEX 01 01:43:19
  TRACK 46 AUDIO
    TITLE "0:"
    INDEX 01 01:47:29
  TRACK 47 AUDIO
    TITLE "20:cjc123_3716"
    INDEX 01 01:47:58
  TRACK 48 AUDIO
    TITLE "0:"
    INDEX 01 01:51:38
  TRACK 49 AUDIO
    TITLE "21:cjc123_3717"
    INDEX 01 01:52:00
  TRACK 50 AUDIO
    TITLE "0:"
    INDEX 01 01:56:10
  TRACK 51 AUDIO
    TITLE "19:cjc123_3718"
    INDEX 01 01:56:59
  TRACK 52 AUDIO
    TITLE "0:"
    INDEX 01 02:02:73
  TRACK 53 AUDIO
    TITLE "20:cjc123_3719"
    INDEX 01 02:03:34
  TRACK 54 AUDIO
    TITLE "0:"
    INDEX 01 02:08:68
  TRACK 55 AUDIO
    TITLE "21:cjc123_3720"
    INDEX 01 02:09:19
  TRACK 56 AUDIO
    TITLE "0:"
    INDEX 01 02:15:31
  TRACK 57 AUDIO
    TITLE "19:cjc123_3721"
    INDEX 01 02:16:09
  TRACK 58 AUDIO
    TITLE "0:"
    INDEX 01 02:21:26
  TRACK 59 AUDIO
    TITLE "20:cjc123_3722"
    INDEX 01 02:21:61
  TRACK 60 AUDIO
    TITLE "0:"
    INDEX 01 02:27:30
  TRACK 61 AUDIO
    TITLE "21:cjc123_3723"
    INDEX 01 02:27:60
  TRACK 62 AUDIO
    TITLE "0:"
    INDEX 01 02:33:05
  TRACK 63 AUDIO
    TITLE "19:cjc123_3724"
    INDEX 01 02:33:56
  TRACK 64 AUDIO
    TITLE "0:"
    INDEX 01 02:40:37
  TRACK 65 AUDIO
    TITLE "20:cjc123_3725"
    INDEX 01 02:40:70
  TRACK 66 AUDIO
    TITLE "0:"
    INDEX 01 02:47:58
  TRACK 67 AUDIO
    TITLE "21:cjc123_3726"
    INDEX 01 02:48:15
  TRACK 68 AUDIO
    TITLE "0:"
    INDEX 01 02:54:70
  TRACK 69 AUDIO
    TITLE "19:cjc123_3727"
    INDEX 01 02:55:48
  TRACK 70 AUDIO
    TITLE "0:"
    INDEX 01 03:01:49
  TRACK 71 AUDIO
    TITLE "20:cjc123_3728"
    INDEX 01 03:02:05
  TRACK 72 AUDIO
    TITLE "0:"
    INDEX 01 03:08:55
  TRACK 73 AUDIO
    TITLE "21:cjc123_3729"
    INDEX 01 03:09:07
  TRACK 74 AUDIO
    TITLE "0:"
    INDEX 01 03:15:06
  TRACK 75 AUDIO
    TITLE "19:cjc123_3730"
    INDEX 01 03:15:57
  TRACK 76 AUDIO
    TITLE "0:"
    INDEX 01 03:19:52
  TRACK 77 AUDIO
    TITLE "20:cjc123_3731"
    INDEX 01 03:20:15
  TRACK 78 AUDIO
    TITLE "0:"
    INDEX 01 03:25:14
  TRACK 79 AUDIO
    TITLE "21:cjc123_3732"
    INDEX 01 03:25:41
  TRACK 80 AUDIO
    TITLE "0:"
    INDEX 01 03:29:37
  TRACK 81 AUDIO
    TITLE "19:cjc123_3733"
    INDEX 01 03:30:21
  TRACK 82 AUDIO
    TITLE "0:"
    INDEX 01 03:36:08
  TRACK 83 AUDIO
    TITLE "20:cjc123_3734"
    INDEX 01 03:36:51
  TRACK 84 AUDIO
    TITLE "0:"
    INDEX 01 03:41:07
  TRACK 85 AUDIO
    TITLE "21:cjc123_3735"
    INDEX 01 03:41:40
  TRACK 86 AUDIO
    TITLE "0:"
    INDEX 01 03:47:27
  TRACK 87 AUDIO
    TITLE "19:cjc123_3736"
    INDEX 01 03:48:09
  TRACK 88 AUDIO
    TITLE "0:"
    INDEX 01 03:52:15
  TRACK 89 AUDIO
    TITLE "20:cjc123_3737"
    INDEX 01 03:52:44
  TRACK 90 AUDIO
    TITLE "0:"
    INDEX 01 03:56:30
  TRACK 91 AUDIO
    TITLE "21:cjc123_3738"
    INDEX 01 03:56:60
  TRACK 92 AUDIO
    TITLE "0:"
    INDEX 01 04:00:67
